<svg width="20" height="20" xmlns="http://www.w3.org/2000/svg" xmlns:xlink="http://www.w3.org/1999/xlink"><defs><circle id="a" cx="7.576" cy="7.576" r="7.576"/></defs><g fill="none" fill-rule="evenodd"><circle fill="#FFF" cx="10" cy="10" r="10"/><g transform="translate(2.424 2.424)"><mask id="b" fill="#fff"><use xlink:href="#a"/></mask><g mask="url(#b)" fill-rule="nonzero"><path fill="#338AF3" d="M0 0h15.152v4.282l-.71 3.294.71 3.293v4.283H0v-4.283l.77-3.293L0 4.282z"/><path fill="#EEE" d="M0 4.282h15.152v6.587H0z"/><path fill="#FFDA44" d="M9.837 7.576l-.924.435.495.896L8.4 8.715 8.277 9.73l-.701-.746-.699.746-.127-1.015-1.006.192.491-.896-.923-.435.926-.435-.497-.897 1.006.192.127-1.015.699.746.698-.746.13 1.015 1.007-.192-.495.897z"/></g></g></g></svg>