<svg xmlns="http://www.w3.org/2000/svg" viewBox="0 0 16.5 16.4"><title>Asset 45</title><defs><style>.cls-1{fill:#ffffff;}</style></defs><g id="Layer_2" data-name="Layer 2"><g id="Layer_1-2" data-name="Layer 1"><path class="cls-1" d="M13.1,8.2a4.9,4.9,0,0,1-9.8,0,3.75,3.75,0,0,1,.1-1H.1v6.6a2.58,2.58,0,0,0,2.6,2.6H13.9a2.58,2.58,0,0,0,2.6-2.6V7.2H13.2A3.75,3.75,0,0,0,13.1,8.2ZM13.8,0H2.6A2.58,2.58,0,0,0,0,2.6V5.4H4.1a4.88,4.88,0,0,1,4-2.1,4.75,4.75,0,0,1,4,2.1h4.1V2.6A2.36,2.36,0,0,0,13.8,0Zm1.3,3.2a.47.47,0,0,1-.5.5H13.2a.47.47,0,0,1-.5-.5V1.8a.47.47,0,0,1,.5-.5h1.4a.47.47,0,0,1,.5.5Zm-3.9,5a3,3,0,0,0-6,0,3.08,3.08,0,0,0,3,3A2.89,2.89,0,0,0,11.2,8.2Z"/></g></g></svg>