<svg id="Layer_1" data-name="Layer 1" xmlns="http://www.w3.org/2000/svg" viewBox="0 0 150 150"><defs><style>.cls-1{fill:#ffffff;}</style></defs><title>Twitter</title><path id="twitter_icon" data-name="twitter icon" class="cls-1" d="M100.41,19.06A30.68,30.68,0,0,1,124,28.4a48.43,48.43,0,0,0,15.29-5.14l3.71-2a29.78,29.78,0,0,1-9.68,14A14.17,14.17,0,0,1,130,37.52v.07c6.47-.07,11.81-3,16.88-4.56v.07A48.12,48.12,0,0,1,136.8,44.69l-4.65,3.69a85.11,85.11,0,0,1-1.38,19.12c-7.45,33.42-27.18,56.1-58.42,65.82-11.22,3.49-29.35,4.92-42.2,1.73a108.46,108.46,0,0,1-17.54-5.72A69.88,69.88,0,0,1,4.15,125l-2.62-1.59a49.26,49.26,0,0,0,9.52.36c2.93-.47,5.81-.35,8.51-.94a61.24,61.24,0,0,0,17.9-6.44,33.3,33.3,0,0,0,8.08-5.29,25.4,25.4,0,0,1-8.88-1.59,29.93,29.93,0,0,1-18.92-19c2.92.32,11.34,1.08,13.31-.58A21.84,21.84,0,0,1,21.31,86a28.64,28.64,0,0,1-14-25.49l3.06,1.45a32.76,32.76,0,0,0,6.27,1.75,9,9,0,0,0,4.08.36h-.15c-1.5-1.74-3.95-2.9-5.46-4.78a30.38,30.38,0,0,1-6.69-27,34.43,34.43,0,0,1,3.2-7.75l.15.07a18.28,18.28,0,0,0,2.69,3.12,54.74,54.74,0,0,0,8.88,8.47,87.87,87.87,0,0,0,36.45,17.6,57.19,57.19,0,0,0,13.39,1.74,27.65,27.65,0,0,1,.15-14,29.39,29.39,0,0,1,16.88-20,36,36,0,0,1,6.62-2l3.64-.44"/></svg>